<svg version="1" xmlns="http://www.w3.org/2000/svg" width="853.333" height="853.333" viewBox="0 0 640.000000 640.000000"><path d="M167 317.8v197.9h91.5V388.2H318l10.2 17.1c5.6 9.5 11.1 18.8 12.4 20.7 1.2 1.9 7.6 12.7 14.2 24 6.7 11.3 13.5 22.7 15.2 25.5 7.6 12.5 23 38.8 23 39.5 0 .4 23.4.7 51.9.7h51.9l-1.7-3.1c-.9-1.7-2.4-4.2-3.2-5.6-2-3-14.8-24.7-16.4-27.5-2.1-4-12.8-22.1-15-25.5-1.9-2.9-21.8-36.7-27.5-46.5-.9-1.7-5.4-9.3-10-17-4.6-7.7-9.3-15.7-10.5-17.9l-2.3-3.8 8.8-5.9c7.9-5.3 21.1-17.2 26.5-23.9 4.7-5.8 13.4-20.1 16.7-27.5 8.3-18.6 12-35.5 12.1-55 .1-15.5-.5-21.3-3.8-33.8-12.6-48.6-50.2-87.2-97-99.5l-10-2.6-98.2-.4-98.3-.3v197.9zm186.4-114c4.7 2.2 8.8 5.2 13.1 9.6 10.2 10.4 14.7 22.4 14.8 39.6.1 11.4-.5 15.8-3.3 24.2-5.5 16.2-17.7 28.6-30.2 30.5-2.4.4-23.4.7-46.8.7l-42.5.1-.1-53.5c0-29.4.1-53.8.2-54.1.2-.4 20-.6 44.1-.5l43.8.1 6.9 3.3z"/></svg>