<?xml version="1.0" encoding="UTF-8"?>
<svg width="230px" height="23px" viewBox="0 0 230 23" version="1.1" xmlns="http://www.w3.org/2000/svg" xmlns:xlink="http://www.w3.org/1999/xlink">
    <!-- Generator: Sketch 41.2 (35397) - http://www.bohemiancoding.com/sketch -->
    <title>github</title>
    <desc>Created with Sketch.</desc>
    <defs></defs>
    <g id="Page-1" stroke="none" stroke-width="1" fill="none" fill-rule="evenodd">
        <g id="github" fill="#FFFFFF">
            <g transform="translate(1.000000, 0.000000)">
                <path d="M113.968185,0.951662096 C107.775719,0.951662096 102.776984,5.95039845 102.776984,12.142863 C102.776984,17.0669921 105.985125,21.2450413 110.46161,22.7372011 C111.058473,22.8118093 111.207687,22.5133774 111.207687,22.2149454 L111.207687,20.2751365 C108.074147,20.9466093 107.402677,18.7829762 107.402677,18.7829762 C106.880422,17.5146406 106.134339,17.1416004 106.134339,17.1416004 C105.089833,16.4701282 106.208952,16.4701282 106.208952,16.4701282 C107.328076,16.5447365 107.924939,17.5892489 107.924939,17.5892489 C108.894837,19.3052329 110.536211,18.7829762 111.207687,18.4845448 C111.282294,17.7384649 111.580728,17.2908164 111.95377,16.9923844 C109.4917,16.6939524 106.880422,15.7240483 106.880422,11.4713914 C106.880422,10.2776636 107.328076,9.23315115 107.999546,8.48707068 C107.850326,8.18863872 107.477285,7.06951858 108.074147,5.50275051 C108.074147,5.50275051 109.044057,5.20431798 111.133086,6.62187007 C112.028377,6.39804639 112.998275,6.24883041 113.968185,6.24883041 C114.938083,6.24883041 115.907993,6.39804639 116.803285,6.62187007 C118.966926,5.20431798 119.862217,5.50275051 119.862217,5.50275051 C120.45908,7.06951858 120.086039,8.18863872 119.93683,8.48707068 C120.682907,9.23315115 121.055948,10.2776636 121.055948,11.4713914 C121.055948,15.7986566 118.444664,16.6939524 115.982601,16.9923844 C116.355642,17.3654246 116.728678,18.0368963 116.728678,19.0814087 L116.728678,22.1403371 C116.728678,22.4387697 116.952505,22.8118093 117.474766,22.6625939 C121.95124,21.170433 125.084779,16.9923844 125.084779,12.0682553 C125.159386,5.95039845 120.160651,0.951662096 113.968185,0.951662096 L113.968185,0.951662096 Z" id="path4"></path>
                <path d="M37.7601256,10.5101103 L31.9758727,10.5101103 C31.8266682,10.5101103 31.7056277,10.631208 31.7056277,10.7805271 L31.7056277,13.6084641 C31.7056277,13.7576691 31.8266682,13.879168 31.9758727,13.879168 L34.2323456,13.879168 L34.2323456,17.392658 C34.2323456,17.392658 33.7255948,17.5653827 32.3249631,17.5653827 C30.6723744,17.5653827 28.3638448,16.961498 28.3638448,11.885115 C28.3638448,6.80758473 30.7676593,6.13953212 33.0245191,6.13953212 C34.9780392,6.13953212 35.8197056,6.48351998 36.3552227,6.64920718 C36.5234612,6.70080372 36.6791156,6.53325479 36.6791156,6.38390678 L37.3243646,3.65149809 C37.3243646,3.5816973 37.3007429,3.49756364 37.2210678,3.44037572 C37.0035673,3.28529461 35.6767643,2.54285461 32.3249631,2.54285461 C28.4635007,2.54285461 24.5026551,4.18568228 24.5026551,12.0830799 C24.5026551,19.9807434 29.0374872,21.1576027 32.8589748,21.1576027 C36.0230451,21.1576027 37.9425821,19.8054478 37.9425821,19.8054478 C38.0216991,19.7617213 38.0301988,19.6511949 38.0301988,19.6004708 L38.0301988,10.7805271 C38.0301988,10.631208 37.90933,10.5101103 37.7601256,10.5101103" id="path3024"></path>
                <path d="M68.4636362,3.48910726 C68.4636362,3.3386127 68.3443871,3.21721371 68.1951826,3.21721371 L64.938336,3.21721371 C64.7895617,3.21721371 64.6685926,3.3386127 64.6685926,3.48910726 C64.6685926,3.4898222 64.6694574,9.78300624 64.6694574,9.78300624 L59.5929165,9.78300624 L59.5929165,3.48910726 C59.5929165,3.3386127 59.4730943,3.21721371 59.3241764,3.21721371 L56.0674733,3.21721371 C55.9192721,3.21721371 55.798446,3.3386127 55.798446,3.48910726 L55.798446,20.5312702 C55.798446,20.6815972 55.9192721,20.8039852 56.0674733,20.8039852 L59.3241764,20.8039852 C59.4730943,20.8039852 59.5929165,20.6815972 59.5929165,20.5312702 L59.5929165,13.2417447 L64.6694574,13.2417447 C64.6694574,13.2417447 64.6605726,20.5307097 64.6605726,20.5312702 C64.6605726,20.6815972 64.7813981,20.8039852 64.930316,20.8039852 L68.1949018,20.8039852 C68.3441068,20.8039852 68.463356,20.6815972 68.4636426,20.5312702 L68.4636426,3.48910726" id="path3026"></path>
                <path d="M44.0336294,5.72545681 C44.0336294,4.55274582 43.0933963,3.60505977 41.9334412,3.60505977 C40.7746328,3.60505977 39.8336836,4.55274582 39.8336836,5.72545681 C39.8336836,6.89695011 40.7746328,7.84717275 41.9334412,7.84717275 C43.0933963,7.84717275 44.0336294,6.89695011 44.0336294,5.72545681" id="path3028"></path>
                <path d="M43.9284986,16.9363011 L43.9284986,9.06960473 C43.9284986,8.92022788 43.8079596,8.79812646 43.6590417,8.79812646 L40.412515,8.79812646 C40.2635971,8.79812646 40.1303017,8.95174565 40.1303017,9.10106483 L40.1303017,20.3717055 C40.1303017,20.702983 40.3366942,20.8014091 40.603858,20.8014091 L43.5288996,20.8014091 C43.8498117,20.8014091 43.9284986,20.6439171 43.9284986,20.3664426 L43.9284986,16.9363011" id="path3030"></path>
                <path d="M81.352141,8.82376791 L78.1202284,8.82376791 C77.9720289,8.82376791 77.8513487,8.94592641 77.8513487,9.09624939 L77.8513487,17.4525691 C77.8513487,17.4525691 77.0303648,18.0532574 75.8649599,18.0532574 C74.699705,18.0532574 74.3904026,17.52452 74.3904026,16.3834842 L74.3904026,9.09624939 C74.3904026,8.94592641 74.2700049,8.82376791 74.1216613,8.82376791 L70.8415942,8.82376791 C70.6935388,8.82376791 70.5722821,8.94592641 70.5722821,9.09624939 L70.5722821,16.9352978 C70.5722821,20.3244516 72.461203,21.1535714 75.059745,21.1535714 C77.1914619,21.1535714 78.9102567,19.9758732 78.9102567,19.9758732 C78.9102567,19.9758732 78.9920939,20.596496 79.0290746,20.670119 C79.0662052,20.7435188 79.1626583,20.8176456 79.2668546,20.8176456 L81.3535709,20.8084668 C81.501632,20.8084668 81.622883,20.6860788 81.622883,20.5364241 L81.6217299,9.09625227 C81.6217299,8.94592929 81.5009055,8.82377079 81.3519911,8.82377079" id="path3032"></path>
                <path d="M89.5494403,18.0429525 C88.4284711,18.0088142 87.6681127,17.5001539 87.6681127,17.5001539 L87.6681127,12.1032313 C87.6681127,12.1032313 88.4182948,11.6434635 89.3386031,11.5612792 C90.5024281,11.4570223 91.6238297,11.8085776 91.6238297,14.5848874 C91.6238297,17.5124802 91.1177351,18.0902075 89.5494403,18.0429525 Z M90.8242016,8.44092438 C88.9885954,8.44092438 87.7400619,9.25990132 87.7400619,9.25990132 L87.7400619,3.48910726 C87.7400619,3.3386127 87.6198141,3.21721371 87.4713205,3.21721371 L84.2053043,3.21721371 C84.0568165,3.21721371 83.9361363,3.3386127 83.9361363,3.48910726 L83.9361363,20.5312702 C83.9361363,20.6815972 84.0568165,20.8039852 84.2057367,20.8039852 L86.4717523,20.8039852 C86.5738037,20.8039852 86.6510573,20.7514142 86.7081023,20.6592577 C86.7644324,20.567661 86.8456931,19.8735282 86.8456931,19.8735282 C86.8456931,19.8735282 88.1812298,21.1391268 90.7093908,21.1391268 C93.6774341,21.1391268 95.3796008,19.6335654 95.3796008,14.3805302 C95.3796008,9.12738028 92.6610936,8.44092438 90.8242016,8.44092438 L90.8242016,8.44092438 Z" id="path3034"></path>
                <path d="M53.5443883,8.79660722 L51.1013596,8.79660722 C51.1013596,8.79660722 51.0976119,5.56980237 51.0976119,5.5690857 C51.0976119,5.44697044 51.0346906,5.38591252 50.8935124,5.38591252 L47.5642854,5.38591252 C47.4348599,5.38591252 47.3653455,5.44281343 47.3653455,5.56722283 L47.3653455,8.90242653 C47.3653455,8.90242653 45.6970057,9.30520757 45.5842065,9.33772855 C45.4718369,9.3703216 45.3891365,9.47389059 45.3891365,9.59751067 L45.3891365,11.6933557 C45.3891365,11.8440655 45.5095325,11.9656221 45.6584504,11.9656221 L47.3653455,11.9656221 L47.3653455,17.0076927 C47.3653455,20.7527005 49.9922647,21.1206509 51.7649479,21.1206509 C52.5748953,21.1206509 53.5437939,20.8604761 53.7037478,20.8014091 C53.8004943,20.7658583 53.8566791,20.6656962 53.8566791,20.5570805 L53.859389,18.2514517 C53.859389,18.1011293 53.7324006,17.9794724 53.589359,17.9794724 C53.4470341,17.9794724 53.0828372,18.0373627 52.7078908,18.0373627 C51.5079471,18.0373627 51.101325,17.4793856 51.101325,16.7571978 C51.101325,16.0355261 51.1011814,11.9656221 51.1011814,11.9656221 L53.5443537,11.9656221 C53.6932716,11.9656221 53.8138106,11.8440655 53.8138106,11.6933557 L53.8138106,9.06815698 C53.8138106,8.91770543 53.6932716,8.79660722 53.5443537,8.79660722" id="path3036"></path>
                <path d="M13.2343877,17.3891545 C12.691851,17.3891545 12.2122166,17.2633487 11.7954846,17.0117372 C11.3787533,16.7601257 11.0878277,16.3551883 10.9227079,15.7969251 C10.4587986,16.3630512 9.96736988,16.7679886 9.44842185,17.0117372 C8.92947307,17.2554858 8.37120988,17.3773601 7.77363227,17.3773601 C7.27827214,17.3773601 6.84581508,17.2908688 6.47626107,17.1178861 C6.11456921,16.9449034 5.80791752,16.7090177 5.55630602,16.4102289 C5.31255739,16.1035772 5.12778002,15.7458172 5.00197389,15.3369487 C4.88403139,14.9202167 4.82506015,14.468102 4.82506015,13.9806048 C4.82506015,13.532422 4.88010033,13.0803077 4.99018068,12.624262 C5.10812318,12.1603534 5.28110586,11.716102 5.50912872,11.2915078 C5.73715158,10.85905 6.02021461,10.4580441 6.35831783,10.0884901 C6.70428319,9.71107245 7.10528909,9.38476356 7.56133555,9.1095634 C8.02524415,8.82650111 8.54419256,8.60634113 9.11818077,8.44908348 C9.70003261,8.28396368 10.3369243,8.20140378 11.0288557,8.20140378 C11.6421591,8.20140378 12.1650393,8.24858071 12.5974964,8.34293456 C13.0299534,8.43728915 13.4466851,8.57095779 13.8476914,8.74394047 L12.7154396,13.1196225 C12.5896335,13.6228455 12.5267304,14.0356454 12.5267304,14.3580221 C12.5345926,14.6725366 12.5857013,14.9241481 12.6800566,15.1128566 C12.7744112,15.2937029 12.9080799,15.4195086 13.0810626,15.4902738 C13.2540452,15.5610405 13.4506166,15.5964239 13.6707765,15.5964239 C14.0010169,15.5964239 14.3116,15.4942068 14.6025259,15.2897726 C14.9013147,15.0774755 15.1607891,14.7826181 15.3809491,14.4052005 C15.6011091,14.0277836 15.7740917,13.5796008 15.8998971,13.060652 C16.0335661,12.5417032 16.1004006,11.9755771 16.1004006,11.3622737 C16.1004006,10.340102 15.9392119,9.43980485 15.6168344,8.66138243 C15.3023199,7.88295926 14.8580685,7.23427329 14.2840803,6.71532451 C13.7100913,6.18851285 13.0260224,5.79536983 12.2318734,5.53589544 C11.4455874,5.26855817 10.5806729,5.13488953 9.63712992,5.13488953 C8.59923237,5.13488953 7.63996364,5.33146086 6.75932374,5.72460351 C5.87868309,6.10988402 5.11205425,6.64062713 4.45943721,7.31683282 C3.81468305,7.99303851 3.3075286,8.79111888 2.93797385,9.71107394 C2.57628198,10.6310283 2.39543605,11.6217485 2.39543605,12.6832347 C2.39543605,13.9727438 2.59593919,15.108927 2.99694547,16.0917844 C3.39795101,17.0667789 3.94835094,17.8845161 4.64814528,18.544996 C5.34794036,19.197613 6.16960939,19.6890417 7.11315235,20.0192821 C8.06455819,20.3495224 9.09066143,20.5146426 10.191462,20.5146426 C10.7969018,20.5146426 11.3630275,20.4792592 11.8898392,20.4084925 C12.4166508,20.345588 12.9002166,20.2551652 13.3405366,20.1372242 C13.7808565,20.0271438 14.1818624,19.8974066 14.5435543,19.7480126 C14.9052454,19.6064807 15.2276225,19.4531549 15.5106855,19.2880351 C15.7151205,19.1700926 15.8959664,19.1347092 16.0532233,19.181885 C16.2104802,19.2290653 16.3244917,19.3470082 16.3952576,19.5357137 L16.7962635,20.5854063 C15.9785259,21.1200801 15.0231887,21.5564686 13.9302517,21.8945718 C12.8373139,22.232675 11.5910507,22.4017266 10.191462,22.4017266 C8.76828397,22.4017266 7.45125482,22.1776352 6.24037459,21.7294524 C5.02949435,21.2812688 3.97980285,20.6365143 3.09130006,19.7951888 C2.21065942,18.9617254 1.51872759,17.9434851 1.01550458,16.7404677 C0.52014445,15.5374504 0.272464385,14.1850386 0.272464385,12.6832325 C0.272464385,11.8419063 0.378612931,11.0241687 0.590910023,10.2300197 C0.811069998,9.43587155 1.12165313,8.69283136 1.52265941,8.00089915 C1.92366494,7.30110482 2.40723075,6.6602821 2.97335682,6.078431 C3.5394829,5.49657916 4.16851166,4.99728759 4.86044312,4.58055629 C5.55237457,4.16382424 6.29934621,3.84144679 7.10135803,3.61342393 C7.91123272,3.37753819 8.75649002,3.25959532 9.63712992,3.25959532 C10.7536563,3.25959532 11.823005,3.44830414 12.8451761,3.82572177 C13.8752107,4.19527578 14.7833711,4.72994995 15.5696572,5.42974429 C16.3638061,6.12167574 16.9967663,6.97086448 17.4685378,7.97731051 C17.9403093,8.97589365 18.176195,10.104214 18.176195,11.3622715 C18.176195,12.2035977 18.0503892,12.9938152 17.7987777,13.732924 C17.5550291,14.4641699 17.2090634,15.1010615 16.7608806,15.6435989 C16.3205606,16.1861364 15.7976804,16.614662 15.1922399,16.9291758 C14.594663,17.2358275 13.9420456,17.3891533 13.2343877,17.3891533 L13.2343877,17.3891545 Z M8.35155305,15.5020682 C8.55598725,15.5020682 8.76042146,15.4706159 8.96485567,15.4077113 C9.17715277,15.3448068 9.37765553,15.2347264 9.56636398,15.0774703 C9.75507316,14.9123505 9.92805621,14.6961219 10.0853131,14.4287847 C10.24257,14.1614474 10.3723072,13.827276 10.4745247,13.4262704 L11.3355081,10.1002811 C11.0838966,10.0531008 10.8244223,10.0295106 10.557085,10.0295106 C10.0695877,10.0295106 9.61354165,10.1356592 9.18894672,10.3479563 C8.76435253,10.5602534 8.39479816,10.8472479 8.08028359,11.2089397 C7.7736319,11.5706308 7.52988328,11.9873621 7.34903772,12.4591336 C7.16819216,12.923043 7.07776938,13.4066091 7.07776938,13.9098322 C7.07776938,14.4130552 7.18391792,14.8061978 7.39621501,15.0892601 C7.61637499,15.3644603 7.934821,15.5020603 8.35155305,15.5020603 L8.35155305,15.5020682 Z" id="path4246" stroke="#FFFFFF" stroke-width="0.5123522"></path>
            </g>
        </g>
    </g>
</svg>