<?xml version="1.0" encoding="UTF-8"?>
<svg width="230px" height="120px" viewBox="0 0 230 120" version="1.1" xmlns="http://www.w3.org/2000/svg" xmlns:xlink="http://www.w3.org/1999/xlink">
    <!-- Generator: Sketch 44.1 (41455) - http://www.bohemiancoding.com/sketch -->
    <title>logo_white</title>
    <desc>Created with Sketch.</desc>
    <defs></defs>
    <g id="Page-1" stroke="none" stroke-width="1" fill="none" fill-rule="evenodd">
        <g id="logo_white" fill="#FFFFFF">
            <path d="M20.04,59 L20.04,22.79 L36.054,22.79 C37.7200083,22.79 39.2584929,23.1384965 40.6695,23.8355 C42.0805071,24.5325035 43.2959949,25.4504943 44.316,26.5895 C45.3360051,27.7285057 46.1349971,29.0204928 46.713,30.4655 C47.2910029,31.9105072 47.58,33.3639927 47.58,34.826 C47.58,37.1720117 46.9935059,39.3054904 45.8205,41.2265 C44.6474941,43.1475096 43.05801,44.5329957 41.052,45.383 L49.314,59 L41.409,59 L34.014,46.862 L27.078,46.862 L27.078,59 L20.04,59 Z M27.078,40.691 L35.901,40.691 C36.5470032,40.691 37.1504972,40.5380015 37.7115,40.232 C38.2725028,39.9259985 38.756998,39.5095026 39.165,38.9825 C39.573002,38.4554974 39.8959988,37.8350036 40.134,37.121 C40.3720012,36.4069964 40.491,35.6420041 40.491,34.826 C40.491,33.9759957 40.3550014,33.1940036 40.083,32.48 C39.8109986,31.7659964 39.4455023,31.1455026 38.9865,30.6185 C38.5274977,30.0914974 38.000503,29.6835014 37.4055,29.3945 C36.810497,29.1054986 36.2070031,28.961 35.595,28.961 L27.078,28.961 L27.078,40.691 Z M56.455,59 L56.455,22.79 L63.493,22.79 L63.493,59 L56.455,59 Z M73.541,59 L73.541,22.79 L86.699,22.79 C89.6570148,22.79 92.2494889,23.2659952 94.4765,24.218 C96.7035111,25.1700048 98.5649925,26.4619918 100.061,28.094 C101.557007,29.7260082 102.678996,31.638489 103.427,33.8315 C104.175004,36.024511 104.549,38.3619876 104.549,40.844 C104.549,43.5980138 104.132504,46.0884889 103.2995,48.3155 C102.466496,50.5425111 101.268008,52.4464921 99.704,54.0275 C98.1399922,55.6085079 96.261511,56.8324957 94.0685,57.6995 C91.875489,58.5665043 89.4190136,59 86.699,59 L73.541,59 Z M97.46,40.844 C97.46,39.1099913 97.2220024,37.5120073 96.746,36.05 C96.2699976,34.5879927 95.5730046,33.3300053 94.655,32.276 C93.7369954,31.2219947 92.6065067,30.4060029 91.2635,29.828 C89.9204933,29.2499971 88.3990085,28.961 86.699,28.961 L80.579,28.961 L80.579,52.829 L86.699,52.829 C88.4330087,52.829 89.9714933,52.5230031 91.3145,51.911 C92.6575067,51.2989969 93.7794955,50.4575054 94.6805,49.3865 C95.5815045,48.3154946 96.2699976,47.0490073 96.746,45.587 C97.2220024,44.1249927 97.46,42.5440085 97.46,40.844 Z M112.557,59 L112.557,22.79 L125.715,22.79 C128.673015,22.79 131.265489,23.2659952 133.4925,24.218 C135.719511,25.1700048 137.580993,26.4619918 139.077,28.094 C140.573007,29.7260082 141.694996,31.638489 142.443,33.8315 C143.191004,36.024511 143.565,38.3619876 143.565,40.844 C143.565,43.5980138 143.148504,46.0884889 142.3155,48.3155 C141.482496,50.5425111 140.284008,52.4464921 138.72,54.0275 C137.155992,55.6085079 135.277511,56.8324957 133.0845,57.6995 C130.891489,58.5665043 128.435014,59 125.715,59 L112.557,59 Z M136.476,40.844 C136.476,39.1099913 136.238002,37.5120073 135.762,36.05 C135.285998,34.5879927 134.589005,33.3300053 133.671,32.276 C132.752995,31.2219947 131.622507,30.4060029 130.2795,29.828 C128.936493,29.2499971 127.415008,28.961 125.715,28.961 L119.595,28.961 L119.595,52.829 L125.715,52.829 C127.449009,52.829 128.987493,52.5230031 130.3305,51.911 C131.673507,51.2989969 132.795495,50.4575054 133.6965,49.3865 C134.597505,48.3154946 135.285998,47.0490073 135.762,45.587 C136.238002,44.1249927 136.476,42.5440085 136.476,40.844 Z M151.573,59 L151.573,22.79 L158.611,22.79 L158.611,52.829 L177.073,52.829 L177.073,59 L151.573,59 Z M209,52.829 L209,59 L183.857,59 L183.857,22.79 L208.541,22.79 L208.541,28.961 L190.895,28.961 L190.895,37.682 L206.144,37.682 L206.144,43.394 L190.895,43.394 L190.895,52.829 L209,52.829 Z" id="RIDDLE"></path>
            <path d="M24.5000962,81.9290039 L23.1230454,81.9290039 L23.1230454,85 L21.3945297,85 L21.3945297,76.6109374 L24.5116196,76.6109374 C25.5026402,76.6109374 26.2670206,76.831801 26.8047837,77.273535 C27.3425468,77.715269 27.6114244,78.339449 27.6114244,79.1460937 C27.6114244,79.7184273 27.4875487,80.1956849 27.2397935,80.5778808 C26.9920384,80.9600767 26.6165701,81.2644845 26.1133775,81.4911132 L27.9283189,84.9193359 L27.9283189,85 L26.0730454,85 L24.5000962,81.9290039 Z M23.1230454,80.5289062 L24.5173814,80.5289062 C24.951433,80.5289062 25.2875299,80.4184743 25.5256822,80.1976073 C25.7638344,79.9767404 25.8829087,79.6723326 25.8829087,79.2843749 C25.8829087,78.8887349 25.7705563,78.5776052 25.5458482,78.3509765 C25.32114,78.1243477 24.9764006,78.011035 24.5116196,78.011035 L23.1230454,78.011035 L23.1230454,80.5289062 Z M33.2101549,85 C33.141014,84.8041006 33.0968412,84.514097 33.0776354,84.1299805 C32.835642,84.444956 32.5273931,84.687906 32.1528795,84.8588379 C31.7783659,85.0297697 31.3817716,85.1152344 30.9630846,85.1152344 C30.3638628,85.1152344 29.878923,84.9481462 29.5082506,84.6139648 C29.1375781,84.2797835 28.9522447,83.8572617 28.9522447,83.3463867 C28.9522447,82.7394826 29.2047975,82.2593442 29.7099107,81.905957 C30.2150239,81.5525698 30.9189069,81.3758788 31.8215807,81.3758788 L33.0718737,81.3758788 L33.0718737,80.6671874 C33.0718737,80.2216123 32.9345541,79.8711112 32.6599108,79.6156737 C32.3852675,79.3602363 31.984832,79.2325194 31.4585924,79.2325194 C30.9784468,79.2325194 30.5808921,79.3554349 30.2659166,79.6012694 C29.9509411,79.847104 29.7934557,80.1428693 29.7934557,80.4885741 L29.1020494,80.4828124 C29.1020494,79.9873021 29.3325158,79.5580584 29.7934557,79.1950683 C30.2543955,78.8320782 30.8209588,78.6505858 31.4931627,78.6505858 C32.1884136,78.6505858 32.7367317,78.8243959 33.1381334,79.1720214 C33.5395352,79.5196468 33.7459947,80.0045867 33.7575182,80.6268554 L33.7575182,83.5768554 C33.7575182,84.1799184 33.8208965,84.6312485 33.9476549,84.9308594 L33.9476549,85 L33.2101549,85 Z M31.0437486,84.5044922 C31.5046885,84.5044922 31.9166472,84.3931001 32.2796373,84.1703125 C32.6426274,83.9475249 32.9067036,83.6498391 33.0718737,83.2772461 L33.0718737,81.905957 L31.8388658,81.905957 C31.1512973,81.9136393 30.6135422,82.0394356 30.2255846,82.2833496 C29.8376269,82.5272635 29.643651,82.8624002 29.643651,83.2887695 C29.643651,83.6383155 29.7732883,83.9283191 30.032567,84.158789 C30.2918456,84.389259 30.6289028,84.5044922 31.0437486,84.5044922 Z M38.1001941,84.5333008 C38.5803397,84.5333008 38.9826957,84.3979017 39.3072742,84.1270996 C39.6318526,83.8562975 39.8075833,83.5057964 39.8344714,83.0755859 L40.4970691,83.0755859 C40.4778633,83.4558613 40.358789,83.8025212 40.1398425,84.1155762 C39.9208961,84.4286311 39.6299322,84.6735017 39.2669421,84.8501953 C38.903952,85.0268889 38.5150399,85.1152344 38.1001941,85.1152344 C37.2820259,85.1152344 36.633839,84.8309924 36.155614,84.2625 C35.6773889,83.6940076 35.43828,82.9296272 35.43828,81.9693359 L35.43828,81.761914 C35.43828,81.1473276 35.545831,80.6038109 35.7609362,80.1313476 C35.9760415,79.6588843 36.2842903,79.2939791 36.6856921,79.036621 C37.0870939,78.7792629 37.5566692,78.6505858 38.0944324,78.6505858 C38.7781597,78.6505858 39.3418423,78.8541645 39.7854968,79.261328 C40.2291514,79.6684915 40.4663398,80.204326 40.4970691,80.8688476 L39.8344714,80.8688476 C39.8037421,80.3810196 39.6280115,79.9873061 39.3072742,79.6876952 C38.9865369,79.3880843 38.5822603,79.2382812 38.0944324,79.2382812 C37.4721636,79.2382812 36.9891443,79.4629859 36.6453601,79.9124023 C36.3015758,80.3618186 36.1296862,80.9917602 36.1296862,81.802246 L36.1296862,82.0039062 C36.1296862,82.7990274 36.3015758,83.4193662 36.6453601,83.8649414 C36.9891443,84.3105165 37.4740842,84.5333008 38.1001941,84.5333008 Z M44.4882801,85.1152344 C43.9581993,85.1152344 43.4790212,84.9846367 43.0507313,84.7234375 C42.6224414,84.4622383 42.2892253,84.0982933 42.051073,83.6315918 C41.8129208,83.1648902 41.6938465,82.6415393 41.6938465,82.0615234 L41.6938465,81.8137695 C41.6938465,81.2145477 41.81004,80.6748721 42.0424305,80.1947265 C42.274821,79.7145808 42.5984343,79.337192 43.0132801,79.0625487 C43.4281259,78.7879054 43.8775355,78.6505858 44.3615223,78.6505858 C45.1182318,78.6505858 45.7184049,78.9089003 46.1620594,79.425537 C46.605714,79.9421737 46.827538,80.6479772 46.827538,81.5429687 L46.827538,81.9290039 L42.379491,81.9290039 L42.379491,82.0615234 C42.379491,82.7682978 42.5821094,83.3569475 42.9873524,83.8274902 C43.3925953,84.2980329 43.9025023,84.5333008 44.5170887,84.5333008 C44.8858406,84.5333008 45.2113744,84.4660814 45.4937001,84.3316406 C45.7760257,84.1971998 46.0324196,83.9820978 46.2628895,83.6863281 L46.6950184,84.0147461 C46.1879846,84.7484086 45.4524126,85.1152344 44.4882801,85.1152344 Z M44.3615223,79.2382812 C43.842965,79.2382812 43.406039,79.428416 43.0507313,79.8086913 C42.6954235,80.1889667 42.4793612,80.699834 42.4025379,81.3413085 L46.1418934,81.3413085 L46.1418934,81.2664062 C46.1226876,80.6671844 45.9517583,80.1793638 45.6291004,79.8029296 C45.3064426,79.4264954 44.8839208,79.2382812 44.3615223,79.2382812 Z M55.3746084,85 C55.3054674,84.8041006 55.2612947,84.514097 55.2420889,84.1299805 C55.0000955,84.444956 54.6918466,84.687906 54.317333,84.8588379 C53.9428194,85.0297697 53.5462251,85.1152344 53.1275381,85.1152344 C52.5283163,85.1152344 52.0433765,84.9481462 51.6727041,84.6139648 C51.3020316,84.2797835 51.1166982,83.8572617 51.1166982,83.3463867 C51.1166982,82.7394826 51.369251,82.2593442 51.8743642,81.905957 C52.3794774,81.5525698 53.0833604,81.3758788 53.9860342,81.3758788 L55.2363272,81.3758788 L55.2363272,80.6671874 C55.2363272,80.2216123 55.0990076,79.8711112 54.8243643,79.6156737 C54.549721,79.3602363 54.1492855,79.2325194 53.6230459,79.2325194 C53.1429002,79.2325194 52.7453456,79.3554349 52.4303701,79.6012694 C52.1153945,79.847104 51.9579091,80.1428693 51.9579091,80.4885741 L51.2665029,80.4828124 C51.2665029,79.9873021 51.4969693,79.5580584 51.9579091,79.1950683 C52.418849,78.8320782 52.9854123,78.6505858 53.6576162,78.6505858 C54.3528671,78.6505858 54.9011852,78.8243959 55.3025869,79.1720214 C55.7039887,79.5196468 55.9104482,80.0045867 55.9219717,80.6268554 L55.9219717,83.5768554 C55.9219717,84.1799184 55.98535,84.6312485 56.1121084,84.9308594 L56.1121084,85 L55.3746084,85 Z M53.2082021,84.5044922 C53.6691419,84.5044922 54.0811007,84.3931001 54.4440908,84.1703125 C54.8070809,83.9475249 55.0711571,83.6498391 55.2363272,83.2772461 L55.2363272,81.905957 L54.0033193,81.905957 C53.3157508,81.9136393 52.7779957,82.0394356 52.3900381,82.2833496 C52.0020804,82.5272635 51.8081045,82.8624002 51.8081045,83.2887695 C51.8081045,83.6383155 51.9377418,83.9283191 52.1970205,84.158789 C52.4562991,84.389259 52.7933563,84.5044922 53.2082021,84.5044922 Z M58.616796,78.7658202 L58.6398428,79.8317382 C58.8741539,79.4476217 59.1660781,79.1547372 59.5156241,78.9530761 C59.8651701,78.7514149 60.2512014,78.6505858 60.6737296,78.6505858 C61.3420923,78.6505858 61.8395157,78.8388001 62.1660148,79.2152343 C62.4925138,79.5916685 62.6576814,80.1563113 62.6615226,80.9091796 L62.6615226,85 L61.9758781,85 L61.9758781,80.9034179 C61.9720369,80.346449 61.8539228,79.9316094 61.6215323,79.6588866 C61.3891419,79.3861639 61.0175147,79.2498046 60.5066397,79.2498046 C60.0802704,79.2498046 59.7028816,79.3832831 59.374462,79.6502441 C59.0460424,79.917205 58.8030923,80.2773089 58.6456046,80.7305663 L58.6456046,85 L57.95996,85 L57.95996,78.7658202 L58.616796,78.7658202 Z M64.3653312,81.8252929 C64.3653312,80.8573193 64.5813935,80.086217 65.0135246,79.5119628 C65.4456557,78.9377086 66.0323848,78.6505858 66.7737297,78.6505858 C67.6149448,78.6505858 68.2564098,78.9828416 68.6981438,79.6473632 L68.6981438,76.1499999 L69.3837883,76.1499999 L69.3837883,85 L68.7384758,85 L68.7096672,84.1703125 C68.2679332,84.8002636 67.6187861,85.1152344 66.7622063,85.1152344 C66.0439084,85.1152344 65.4648614,84.826191 65.025048,84.2480957 C64.5852346,83.6700003 64.3653312,82.8892952 64.3653312,81.905957 L64.3653312,81.8252929 Z M65.0624992,81.946289 C65.0624992,82.7414102 65.2219052,83.368471 65.5407219,83.8274902 C65.8595386,84.2865094 66.3089481,84.5160156 66.8889641,84.5160156 C67.7378616,84.5160156 68.3409154,84.1415076 68.6981438,83.3924804 L68.6981438,80.4655273 C68.3409154,79.6550414 67.7417027,79.2498046 66.9004875,79.2498046 C66.3204716,79.2498046 65.8691414,79.4773902 65.5464836,79.9325683 C65.2238257,80.3877463 65.0624992,81.0589799 65.0624992,81.946289 Z M76.8822259,85.1152344 C76.3521452,85.1152344 75.872967,84.9846367 75.4446771,84.7234375 C75.0163872,84.4622383 74.6831711,84.0982933 74.4450189,83.6315918 C74.2068666,83.1648902 74.0877923,82.6415393 74.0877923,82.0615234 L74.0877923,81.8137695 C74.0877923,81.2145477 74.2039858,80.6748721 74.4363763,80.1947265 C74.6687668,79.7145808 74.9923801,79.337192 75.4072259,79.0625487 C75.8220718,78.7879054 76.2714813,78.6505858 76.7554681,78.6505858 C77.5121777,78.6505858 78.1123507,78.9089003 78.5560053,79.425537 C78.9996598,79.9421737 79.2214838,80.6479772 79.2214838,81.5429687 L79.2214838,81.9290039 L74.7734369,81.9290039 L74.7734369,82.0615234 C74.7734369,82.7682978 74.9760553,83.3569475 75.3812982,83.8274902 C75.7865411,84.2980329 76.2964481,84.5333008 76.9110345,84.5333008 C77.2797864,84.5333008 77.6053203,84.4660814 77.8876459,84.3316406 C78.1699715,84.1971998 78.4263654,83.9820978 78.6568354,83.6863281 L79.0889643,84.0147461 C78.5819305,84.7484086 77.8463584,85.1152344 76.8822259,85.1152344 Z M76.7554681,79.2382812 C76.2369108,79.2382812 75.7999849,79.428416 75.4446771,79.8086913 C75.0893693,80.1889667 74.873307,80.699834 74.7964837,81.3413085 L78.5358393,81.3413085 L78.5358393,81.2664062 C78.5166334,80.6671844 78.3457041,80.1793638 78.0230463,79.8029296 C77.7003884,79.4264954 77.2778666,79.2382812 76.7554681,79.2382812 Z M81.835644,77.1698241 L81.835644,78.7658202 L83.126269,78.7658202 L83.126269,79.3304687 L81.835644,79.3304687 L81.835644,83.4846679 C81.835644,83.8303728 81.898062,84.087727 82.0228999,84.2567383 C82.1477377,84.4257495 82.3561178,84.5102539 82.6480464,84.5102539 C82.7632813,84.5102539 82.949575,84.4910484 83.2069331,84.4526367 L83.2357417,85.0172852 C83.0552069,85.082585 82.809376,85.1152344 82.4982417,85.1152344 C82.0257784,85.1152344 81.6819992,84.9779148 81.466894,84.7032715 C81.2517887,84.4286282 81.1442377,84.0243516 81.1442377,83.4904297 L81.1442377,79.3304687 L79.9976557,79.3304687 L79.9976557,78.7658202 L81.1442377,78.7658202 L81.1442377,77.1698241 L81.835644,77.1698241 Z M85.4408198,79.8202148 C85.6674486,79.4476217 85.9574522,79.1595387 86.3108394,78.9559569 C86.6642266,78.7523752 87.0502579,78.6505858 87.4689449,78.6505858 C88.1373076,78.6505858 88.634731,78.8388001 88.96123,79.2152343 C89.2877291,79.5916685 89.4528967,80.1563113 89.4567379,80.9091796 L89.4567379,85 L88.7710933,85 L88.7710933,80.9034179 C88.7672522,80.346449 88.6491381,79.9316094 88.4167476,79.6588866 C88.1843571,79.3861639 87.81273,79.2498046 87.301855,79.2498046 C86.8754857,79.2498046 86.4980969,79.3832831 86.1696773,79.6502441 C85.8412577,79.917205 85.5983076,80.2773089 85.4408198,80.7305663 L85.4408198,85 L84.7551753,85 L84.7551753,76.1499999 L85.4408198,76.1499999 L85.4408198,79.8202148 Z M92.0881832,78.7658202 L92.1112301,79.8317382 C92.3455412,79.4476217 92.6374653,79.1547372 92.9870114,78.9530761 C93.3365574,78.7514149 93.7225887,78.6505858 94.1451169,78.6505858 C94.8134796,78.6505858 95.310903,78.8388001 95.637402,79.2152343 C95.9639011,79.5916685 96.1290687,80.1563113 96.1329099,80.9091796 L96.1329099,85 L95.4472653,85 L95.4472653,80.9034179 C95.4434241,80.346449 95.3253101,79.9316094 95.0929196,79.6588866 C94.8605291,79.3861639 94.488902,79.2498046 93.978027,79.2498046 C93.5516577,79.2498046 93.1742689,79.3832831 92.8458493,79.6502441 C92.5174296,79.917205 92.2744796,80.2773089 92.1169918,80.7305663 L92.1169918,85 L91.4313473,85 L91.4313473,78.7658202 L92.0881832,78.7658202 Z M98.8853513,85 L98.193945,85 L98.193945,78.7658202 L98.8853513,78.7658202 L98.8853513,85 Z M98.0729489,76.9624022 C98.0729489,76.8318026 98.1152011,76.7213708 98.1997068,76.6311034 C98.2842124,76.540836 98.3994456,76.495703 98.5454099,76.495703 C98.6913742,76.495703 98.8075677,76.540836 98.8939939,76.6311034 C98.9804201,76.7213708 99.0236326,76.8318026 99.0236326,76.9624022 C99.0236326,77.0930018 98.9804201,77.2024734 98.8939939,77.2908202 C98.8075677,77.379167 98.6913742,77.4233397 98.5454099,77.4233397 C98.3994456,77.4233397 98.2842124,77.379167 98.1997068,77.2908202 C98.1152011,77.2024734 98.0729489,77.0930018 98.0729489,76.9624022 Z M103.262597,84.5333008 C103.742743,84.5333008 104.145099,84.3979017 104.469678,84.1270996 C104.794256,83.8562975 104.969987,83.5057964 104.996875,83.0755859 L105.659473,83.0755859 C105.640267,83.4558613 105.521192,83.8025212 105.302246,84.1155762 C105.0833,84.4286311 104.792336,84.6735017 104.429346,84.8501953 C104.066355,85.0268889 103.677443,85.1152344 103.262597,85.1152344 C102.444429,85.1152344 101.796242,84.8309924 101.318017,84.2625 C100.839792,83.6940076 100.600683,82.9296272 100.600683,81.9693359 L100.600683,81.761914 C100.600683,81.1473276 100.708234,80.6038109 100.92334,80.1313476 C101.138445,79.6588843 101.446694,79.2939791 101.848095,79.036621 C102.249497,78.7792629 102.719073,78.6505858 103.256836,78.6505858 C103.940563,78.6505858 104.504246,78.8541645 104.9479,79.261328 C105.391555,79.6684915 105.628743,80.204326 105.659473,80.8688476 L104.996875,80.8688476 C104.966146,80.3810196 104.790415,79.9873061 104.469678,79.6876952 C104.14894,79.3880843 103.744664,79.2382812 103.256836,79.2382812 C102.634567,79.2382812 102.151548,79.4629859 101.807763,79.9124023 C101.463979,80.3618186 101.29209,80.9917602 101.29209,81.802246 L101.29209,82.0039062 C101.29209,82.7990274 101.463979,83.4193662 101.807763,83.8649414 C102.151548,84.3105165 102.636488,84.5333008 103.262597,84.5333008 Z M108.008594,85 L107.317187,85 L107.317187,78.7658202 L108.008594,78.7658202 L108.008594,85 Z M107.196191,76.9624022 C107.196191,76.8318026 107.238443,76.7213708 107.322949,76.6311034 C107.407455,76.540836 107.522688,76.495703 107.668652,76.495703 C107.814616,76.495703 107.93081,76.540836 108.017236,76.6311034 C108.103662,76.7213708 108.146875,76.8318026 108.146875,76.9624022 C108.146875,77.0930018 108.103662,77.2024734 108.017236,77.2908202 C107.93081,77.379167 107.814616,77.4233397 107.668652,77.4233397 C107.522688,77.4233397 107.407455,77.379167 107.322949,77.2908202 C107.238443,77.2024734 107.196191,77.0930018 107.196191,76.9624022 Z M111.152832,77.1698241 L111.152832,78.7658202 L112.443457,78.7658202 L112.443457,79.3304687 L111.152832,79.3304687 L111.152832,83.4846679 C111.152832,83.8303728 111.21525,84.087727 111.340088,84.2567383 C111.464926,84.4257495 111.673306,84.5102539 111.965234,84.5102539 C112.080469,84.5102539 112.266763,84.4910484 112.524121,84.4526367 L112.55293,85.0172852 C112.372395,85.082585 112.126564,85.1152344 111.81543,85.1152344 C111.342966,85.1152344 110.999187,84.9779148 110.784082,84.7032715 C110.568977,84.4286282 110.461426,84.0243516 110.461426,83.4904297 L110.461426,79.3304687 L109.314844,79.3304687 L109.314844,78.7658202 L110.461426,78.7658202 L110.461426,77.1698241 L111.152832,77.1698241 Z M116.048633,84.0089844 L117.869336,78.7658202 L118.612598,78.7658202 L115.950684,86.0601563 L115.812402,86.3828125 C115.470539,87.139522 114.942386,87.5178711 114.22793,87.5178711 C114.06276,87.5178711 113.886069,87.4909834 113.697852,87.4372071 L113.69209,86.8667969 L114.049316,86.9013672 C114.387339,86.9013672 114.661018,86.8178231 114.870361,86.6507324 C115.079705,86.4836418 115.257356,86.196519 115.40332,85.7893555 L115.708691,84.9481445 L113.35791,78.7658202 L114.112695,78.7658202 L116.048633,84.0089844 Z M124.687891,85 L122.959375,85 L122.959375,76.6109374 L124.687891,76.6109374 L124.687891,85 Z M127.267481,78.7658202 L127.290528,79.7798827 C127.520997,79.4034485 127.809081,79.1211271 128.154785,78.9329101 C128.50049,78.744693 128.884601,78.6505858 129.307129,78.6505858 C130.290467,78.6505858 130.914647,79.0539021 131.179688,79.8605468 C131.402475,79.4725891 131.700161,79.173943 132.072754,78.9645995 C132.445347,78.755256 132.856346,78.6505858 133.305762,78.6505858 C134.642487,78.6505858 135.324284,79.3803963 135.351172,80.840039 L135.351172,85 L134.659766,85 L134.659766,80.8918945 C134.655925,80.3349255 134.53589,79.9220065 134.299659,79.6531249 C134.063427,79.3842434 133.678356,79.2498046 133.144434,79.2498046 C132.648924,79.2574869 132.230243,79.4178532 131.888379,79.7309081 C131.546515,80.0439631 131.356381,80.425193 131.317969,80.8746093 L131.317969,85 L130.626563,85 L130.626563,80.840039 C130.622722,80.306117 130.496925,79.9076021 130.24917,79.6444823 C130.001415,79.3813625 129.620185,79.2498046 129.105469,79.2498046 C128.671417,79.2498046 128.29883,79.3736803 127.987696,79.6214355 C127.676561,79.8691906 127.446095,80.2369767 127.296289,80.7248046 L127.296289,85 L126.604883,85 L126.604883,78.7658202 L127.267481,78.7658202 Z M142.309668,81.946289 C142.309668,82.9181038 142.094566,83.6892061 141.664356,84.2596191 C141.234145,84.8300321 140.657979,85.1152344 139.93584,85.1152344 C139.083102,85.1152344 138.430113,84.815628 137.976856,84.2164062 L137.976856,87.396875 L137.291211,87.396875 L137.291211,78.7658202 L137.930762,78.7658202 L137.965332,79.6473632 C138.414749,78.9828416 139.065816,78.6505858 139.918555,78.6505858 C140.663741,78.6505858 141.24855,78.9329072 141.672998,79.4975585 C142.097447,80.0622098 142.309668,80.8457957 142.309668,81.8483398 L142.309668,81.946289 Z M141.618262,81.8252929 C141.618262,81.0301717 141.455015,80.4021507 141.128516,79.9412109 C140.802017,79.480271 140.346846,79.2498046 139.762989,79.2498046 C139.340461,79.2498046 138.977476,79.3515939 138.674024,79.5551757 C138.370572,79.7587574 138.138185,80.0545227 137.976856,80.4424804 L137.976856,83.4328125 C138.142026,83.7900408 138.378254,84.0627595 138.685547,84.2509766 C138.99284,84.4391936 139.355825,84.5333008 139.774512,84.5333008 C140.354528,84.5333008 140.806818,84.301874 141.131397,83.8390137 C141.455975,83.3761533 141.618262,82.7049197 141.618262,81.8252929 Z M148.04668,84.2106445 C147.631834,84.8137074 146.969243,85.1152344 146.058887,85.1152344 C145.394366,85.1152344 144.88926,84.9222187 144.543555,84.5361816 C144.19785,84.1501445 144.021159,83.5787798 144.013477,82.8220703 L144.013477,78.7658202 L144.699122,78.7658202 L144.699122,82.7356445 C144.699122,83.9225645 145.17926,84.5160156 146.139551,84.5160156 C147.138254,84.5160156 147.770116,84.1030966 148.035157,83.2772461 L148.035157,78.7658202 L148.726563,78.7658202 L148.726563,85 L148.058204,85 L148.04668,84.2106445 Z M151.790137,77.1698241 L151.790137,78.7658202 L153.080762,78.7658202 L153.080762,79.3304687 L151.790137,79.3304687 L151.790137,83.4846679 C151.790137,83.8303728 151.852555,84.087727 151.977393,84.2567383 C152.102231,84.4257495 152.310611,84.5102539 152.60254,84.5102539 C152.717775,84.5102539 152.904068,84.4910484 153.161426,84.4526367 L153.190235,85.0172852 C153.0097,85.082585 152.763869,85.1152344 152.452735,85.1152344 C151.980272,85.1152344 151.636493,84.9779148 151.421387,84.7032715 C151.206282,84.4286282 151.098731,84.0243516 151.098731,83.4904297 L151.098731,79.3304687 L149.952149,79.3304687 L149.952149,78.7658202 L151.098731,78.7658202 L151.098731,77.1698241 L151.790137,77.1698241 Z M158.644923,85 C158.575782,84.8041006 158.531609,84.514097 158.512403,84.1299805 C158.27041,84.444956 157.962161,84.687906 157.587647,84.8588379 C157.213134,85.0297697 156.816539,85.1152344 156.397852,85.1152344 C155.79863,85.1152344 155.313691,84.9481462 154.943018,84.6139648 C154.572346,84.2797835 154.387012,83.8572617 154.387012,83.3463867 C154.387012,82.7394826 154.639565,82.2593442 155.144678,81.905957 C155.649792,81.5525698 156.353675,81.3758788 157.256348,81.3758788 L158.506641,81.3758788 L158.506641,80.6671874 C158.506641,80.2216123 158.369322,79.8711112 158.094678,79.6156737 C157.820035,79.3602363 157.4196,79.2325194 156.89336,79.2325194 C156.413214,79.2325194 156.01566,79.3554349 155.700684,79.6012694 C155.385709,79.847104 155.228223,80.1428693 155.228223,80.4885741 L154.536817,80.4828124 C154.536817,79.9873021 154.767283,79.5580584 155.228223,79.1950683 C155.689163,78.8320782 156.255726,78.6505858 156.92793,78.6505858 C157.623181,78.6505858 158.171499,78.8243959 158.572901,79.1720214 C158.974303,79.5196468 159.180762,80.0045867 159.192286,80.6268554 L159.192286,83.5768554 C159.192286,84.1799184 159.255664,84.6312485 159.382423,84.9308594 L159.382423,85 L158.644923,85 Z M156.478516,84.5044922 C156.939456,84.5044922 157.351415,84.3931001 157.714405,84.1703125 C158.077395,83.9475249 158.341471,83.6498391 158.506641,83.2772461 L158.506641,81.905957 L157.273633,81.905957 C156.586065,81.9136393 156.04831,82.0394356 155.660352,82.2833496 C155.272395,82.5272635 155.078419,82.8624002 155.078419,83.2887695 C155.078419,83.6383155 155.208056,83.9283191 155.467335,84.158789 C155.726613,84.389259 156.06367,84.5044922 156.478516,84.5044922 Z M162.301954,77.1698241 L162.301954,78.7658202 L163.592579,78.7658202 L163.592579,79.3304687 L162.301954,79.3304687 L162.301954,83.4846679 C162.301954,83.8303728 162.364372,84.087727 162.48921,84.2567383 C162.614048,84.4257495 162.822428,84.5102539 163.114356,84.5102539 C163.229591,84.5102539 163.415885,84.4910484 163.673243,84.4526367 L163.702052,85.0172852 C163.521517,85.082585 163.275686,85.1152344 162.964552,85.1152344 C162.492088,85.1152344 162.148309,84.9779148 161.933204,84.7032715 C161.718099,84.4286282 161.610548,84.0243516 161.610548,83.4904297 L161.610548,79.3304687 L160.463966,79.3304687 L160.463966,78.7658202 L161.610548,78.7658202 L161.610548,77.1698241 L162.301954,77.1698241 Z M165.993556,85 L165.302149,85 L165.302149,78.7658202 L165.993556,78.7658202 L165.993556,85 Z M165.181153,76.9624022 C165.181153,76.8318026 165.223405,76.7213708 165.307911,76.6311034 C165.392417,76.540836 165.50765,76.495703 165.653614,76.495703 C165.799578,76.495703 165.915772,76.540836 166.002198,76.6311034 C166.088624,76.7213708 166.131837,76.8318026 166.131837,76.9624022 C166.131837,77.0930018 166.088624,77.2024734 166.002198,77.2908202 C165.915772,77.379167 165.799578,77.4233397 165.653614,77.4233397 C165.50765,77.4233397 165.392417,77.379167 165.307911,77.2908202 C165.223405,77.2024734 165.181153,77.0930018 165.181153,76.9624022 Z M167.685841,81.7907226 C167.685841,81.1915008 167.802034,80.6518252 168.034425,80.1716796 C168.266815,79.691534 168.59523,79.3179863 169.019679,79.0510253 C169.444127,78.7840643 169.925226,78.6505858 170.462989,78.6505858 C171.292681,78.6505858 171.964875,78.9415497 172.479591,79.5234862 C172.994307,80.1054228 173.251661,80.8765251 173.251661,81.8368164 L173.251661,81.9808593 C173.251661,82.5839222 173.135468,83.1264787 172.903077,83.6085449 C172.670687,84.0906111 172.343232,84.4622383 171.920704,84.7234375 C171.498176,84.9846367 171.016117,85.1152344 170.474513,85.1152344 C169.648662,85.1152344 168.977429,84.8242705 168.460792,84.242334 C167.944155,83.6603975 167.685841,82.8892951 167.685841,81.9290039 L167.685841,81.7907226 Z M168.377247,81.9808593 C168.377247,82.7260454 168.570263,83.3377417 168.9563,83.8159668 C169.342337,84.2941918 169.848403,84.5333008 170.474513,84.5333008 C171.096781,84.5333008 171.600927,84.2941918 171.986964,83.8159668 C172.373001,83.3377417 172.566017,82.7068398 172.566017,81.9232421 L172.566017,81.7907226 C172.566017,81.3144181 172.477671,80.8784524 172.300977,80.4828124 C172.124284,80.0871724 171.876532,79.7808441 171.557716,79.5638183 C171.238899,79.3467924 170.873994,79.2382812 170.462989,79.2382812 C169.848403,79.2382812 169.347138,79.4793107 168.959181,79.9613769 C168.571223,80.4434431 168.377247,81.074345 168.377247,81.8541015 L168.377247,81.9808593 Z M175.531642,78.7658202 L175.554688,79.8317382 C175.789,79.4476217 176.080924,79.1547372 176.43047,78.9530761 C176.780016,78.7514149 177.166047,78.6505858 177.588575,78.6505858 C178.256938,78.6505858 178.754361,78.8388001 179.08086,79.2152343 C179.407359,79.5916685 179.572527,80.1563113 179.576368,80.9091796 L179.576368,85 L178.890724,85 L178.890724,80.9034179 C178.886883,80.346449 178.768768,79.9316094 178.536378,79.6588866 C178.303987,79.3861639 177.93236,79.2498046 177.421485,79.2498046 C176.995116,79.2498046 176.617727,79.3832831 176.289308,79.6502441 C175.960888,79.917205 175.717938,80.2773089 175.56045,80.7305663 L175.56045,85 L174.874806,85 L174.874806,78.7658202 L175.531642,78.7658202 Z M185.121583,85 L185.121583,79.3304687 L184.090235,79.3304687 L184.090235,78.7658202 L185.121583,78.7658202 L185.121583,78.011035 C185.121583,77.3734016 185.28387,76.8836604 185.608448,76.5417967 C185.933027,76.199933 186.385317,76.0290038 186.965333,76.0290038 C187.226532,76.0290038 187.470443,76.0616532 187.697071,76.126953 L187.645216,76.7031249 C187.453158,76.6570309 187.243817,76.6339842 187.017189,76.6339842 C186.636913,76.6339842 186.341148,76.7520983 186.129884,76.9883299 C185.91862,77.2245616 185.812989,77.5596982 185.812989,77.9937499 L185.812989,78.7658202 L187.299513,78.7658202 L187.299513,79.3304687 L185.812989,79.3304687 L185.812989,85 L185.121583,85 Z M191.61338,79.3535155 C191.467416,79.3266274 191.311851,79.3131835 191.146681,79.3131835 C190.71647,79.3131835 190.352525,79.4332181 190.054835,79.6732909 C189.757145,79.9133637 189.544924,80.2619443 189.418165,80.7190429 L189.418165,85 L188.732521,85 L188.732521,78.7658202 L189.406642,78.7658202 L189.418165,79.7568359 C189.783076,79.0193322 190.368845,78.6505858 191.17549,78.6505858 C191.367548,78.6505858 191.519272,78.675553 191.630665,78.7254882 L191.61338,79.3535155 Z M192.406837,81.7907226 C192.406837,81.1915008 192.523031,80.6518252 192.755421,80.1716796 C192.987812,79.691534 193.316226,79.3179863 193.740675,79.0510253 C194.165124,78.7840643 194.646223,78.6505858 195.183986,78.6505858 C196.013677,78.6505858 196.685871,78.9415497 197.200587,79.5234862 C197.715303,80.1054228 197.972658,80.8765251 197.972658,81.8368164 L197.972658,81.9808593 C197.972658,82.5839222 197.856464,83.1264787 197.624074,83.6085449 C197.391683,84.0906111 197.064229,84.4622383 196.641701,84.7234375 C196.219172,84.9846367 195.737113,85.1152344 195.195509,85.1152344 C194.369659,85.1152344 193.698425,84.8242705 193.181788,84.242334 C192.665152,83.6603975 192.406837,82.8892951 192.406837,81.9290039 L192.406837,81.7907226 Z M193.098243,81.9808593 C193.098243,82.7260454 193.291259,83.3377417 193.677296,83.8159668 C194.063333,84.2941918 194.569399,84.5333008 195.195509,84.5333008 C195.817778,84.5333008 196.321923,84.2941918 196.70796,83.8159668 C197.093997,83.3377417 197.287013,82.7068398 197.287013,81.9232421 L197.287013,81.7907226 C197.287013,81.3144181 197.198668,80.8784524 197.021974,80.4828124 C196.84528,80.0871724 196.597529,79.7808441 196.278712,79.5638183 C195.959896,79.3467924 195.59499,79.2382812 195.183986,79.2382812 C194.569399,79.2382812 194.068135,79.4793107 193.680177,79.9613769 C193.292219,80.4434431 193.098243,81.074345 193.098243,81.8541015 L193.098243,81.9808593 Z M200.223829,78.7658202 L200.246876,79.7798827 C200.477346,79.4034485 200.765429,79.1211271 201.111134,78.9329101 C201.456839,78.744693 201.84095,78.6505858 202.263478,78.6505858 C203.246816,78.6505858 203.870996,79.0539021 204.136037,79.8605468 C204.358824,79.4725891 204.65651,79.173943 205.029103,78.9645995 C205.401696,78.755256 205.812695,78.6505858 206.262111,78.6505858 C207.598836,78.6505858 208.280633,79.3803963 208.307521,80.840039 L208.307521,85 L207.616115,85 L207.616115,80.8918945 C207.612274,80.3349255 207.492239,79.9220065 207.256007,79.6531249 C207.019776,79.3842434 206.634705,79.2498046 206.100783,79.2498046 C205.605272,79.2574869 205.186592,79.4178532 204.844728,79.7309081 C204.502864,80.0439631 204.312729,80.425193 204.274318,80.8746093 L204.274318,85 L203.582912,85 L203.582912,80.840039 C203.57907,80.306117 203.453274,79.9076021 203.205519,79.6444823 C202.957764,79.3813625 202.576534,79.2498046 202.061818,79.2498046 C201.627766,79.2498046 201.255179,79.3736803 200.944044,79.6214355 C200.63291,79.8691906 200.402444,80.2369767 200.252638,80.7248046 L200.252638,85 L199.561232,85 L199.561232,78.7658202 L200.223829,78.7658202 Z M21.290731,101.5 L21.290731,93.1109374 L23.871981,93.1109374 C24.6094847,93.1109374 25.2691949,93.2770653 25.8511314,93.609326 C26.4330679,93.9415868 26.8872789,94.414043 27.2137779,95.0267089 C27.540277,95.6393747 27.703524,96.3355754 27.703524,97.115332 L27.703524,97.5013671 C27.703524,98.2811236 27.5431578,98.9744435 27.2224205,99.5813476 C26.9016832,100.188252 26.4493928,100.658787 25.8655357,100.992969 C25.2816786,101.32715 24.6229287,101.496159 23.8892662,101.5 L21.290731,101.5 Z M23.0192466,94.511035 L23.0192466,100.111426 L23.8546959,100.111426 C24.5307409,100.111426 25.0473699,99.8905621 25.4045982,99.4488281 C25.7618266,99.0070941 25.9442792,98.3752319 25.9519615,97.5532226 L25.9519615,97.1095702 C25.9519615,96.2568316 25.7752706,95.6105653 25.4218834,95.1707519 C25.0684962,94.7309384 24.5518672,94.511035 23.871981,94.511035 L23.0192466,94.511035 Z M30.1114538,101.5 L29.4200475,101.5 L29.4200475,95.2658202 L30.1114538,95.2658202 L30.1114538,101.5 Z M29.2990514,93.4624022 C29.2990514,93.3318026 29.3413036,93.2213708 29.4258092,93.1311034 C29.5103149,93.040836 29.6255481,92.995703 29.7715124,92.995703 C29.9174766,92.995703 30.0336701,93.040836 30.1200963,93.1311034 C30.2065226,93.2213708 30.249735,93.3318026 30.249735,93.4624022 C30.249735,93.5930018 30.2065226,93.7024734 30.1200963,93.7908202 C30.0336701,93.879167 29.9174766,93.9233397 29.7715124,93.9233397 C29.6255481,93.9233397 29.5103149,93.879167 29.4258092,93.7908202 C29.3413036,93.7024734 29.2990514,93.5930018 29.2990514,93.4624022 Z M35.9476062,99.9155273 C35.9476062,99.5736636 35.8102866,99.2990244 35.5356433,99.0916015 C35.261,98.8841786 34.8471207,98.7218918 34.2939929,98.6047363 C33.7408651,98.4875807 33.3116214,98.353142 33.0062487,98.201416 C32.7008761,98.0496899 32.4742508,97.8643565 32.3263659,97.6454101 C32.1784811,97.4264637 32.1045397,97.1614273 32.1045397,96.8502929 C32.1045397,96.3586238 32.310039,95.9524266 32.7210436,95.6316894 C33.1320483,95.3109521 33.65828,95.1505858 34.2997546,95.1505858 C34.9950055,95.1505858 35.5529264,95.3224754 35.9735339,95.6662597 C36.3941415,96.0100439 36.6044421,96.4584932 36.6044421,97.011621 L35.9130359,97.011621 C35.9130359,96.6467103 35.7603519,96.3432628 35.4549792,96.1012694 C35.1496066,95.859276 34.7645356,95.7382812 34.2997546,95.7382812 C33.8464971,95.7382812 33.4825522,95.8391102 33.2079089,96.0407714 C32.9332656,96.2424326 32.795946,96.5045881 32.795946,96.827246 C32.795946,97.1383804 32.9102189,97.3794099 33.1387683,97.5503417 C33.3673176,97.7212736 33.7840777,97.8777987 34.3890613,98.0199218 C34.9940448,98.1620449 35.4472954,98.3137687 35.7488269,98.4750976 C36.0503584,98.6364265 36.2741029,98.8304025 36.4200671,99.0570312 C36.5660314,99.28366 36.6390125,99.5582991 36.6390125,99.880957 C36.6390125,100.407197 36.4267913,100.827798 36.0023425,101.142773 C35.5778938,101.457749 35.023814,101.615234 34.3400866,101.615234 C33.6141064,101.615234 33.0254567,101.439504 32.5741198,101.088037 C32.1227829,100.73657 31.8971179,100.291962 31.8971179,99.7541992 L32.5885241,99.7541992 C32.6154123,100.157522 32.7853813,100.471532 33.0984362,100.69624 C33.4114912,100.920948 33.8253705,101.033301 34.3400866,101.033301 C34.8202323,101.033301 35.2081841,100.92767 35.5039538,100.716406 C35.7997236,100.505142 35.9476062,100.238185 35.9476062,99.9155273 Z M40.833075,101.615234 C40.3029942,101.615234 39.8238161,101.484637 39.3955262,101.223437 C38.9672363,100.962238 38.6340202,100.598293 38.395868,100.131592 C38.1577157,99.6648902 38.0386414,99.1415393 38.0386414,98.5615234 L38.0386414,98.3137695 C38.0386414,97.7145477 38.1548349,97.1748721 38.3872254,96.6947265 C38.6196159,96.2145808 38.9432292,95.837192 39.358075,95.5625487 C39.7729208,95.2879054 40.2223304,95.1505858 40.7063172,95.1505858 C41.4630267,95.1505858 42.0631998,95.4089003 42.5068543,95.925537 C42.9505089,96.4421737 43.1723329,97.1479772 43.1723329,98.0429687 L43.1723329,98.4290039 L38.7242859,98.4290039 L38.7242859,98.5615234 C38.7242859,99.2682978 38.9269043,99.8569475 39.3321473,100.32749 C39.7373902,100.798033 40.2472972,101.033301 40.8618836,101.033301 C41.2306355,101.033301 41.5561693,100.966081 41.838495,100.831641 C42.1208206,100.6972 42.3772145,100.482098 42.6076844,100.186328 L43.0398133,100.514746 C42.5327795,101.248409 41.7972075,101.615234 40.833075,101.615234 Z M40.7063172,95.7382812 C40.1877599,95.7382812 39.7508339,95.928416 39.3955262,96.3086913 C39.0402184,96.6889667 38.8241561,97.199834 38.7473328,97.8413085 L42.4866883,97.8413085 L42.4866883,97.7664062 C42.4674825,97.1671844 42.2965532,96.6793638 41.9738954,96.3029296 C41.6512375,95.9264954 41.2287157,95.7382812 40.7063172,95.7382812 Z M48.6800673,101.5 C48.6109264,101.304101 48.5667536,101.014097 48.5475478,100.62998 C48.3055544,100.944956 47.9973055,101.187906 47.6227919,101.358838 C47.2482783,101.52977 46.851684,101.615234 46.432997,101.615234 C45.8337752,101.615234 45.3488354,101.448146 44.978163,101.113965 C44.6074905,100.779783 44.4221571,100.357262 44.4221571,99.8463867 C44.4221571,99.2394826 44.6747099,98.7593442 45.1798231,98.405957 C45.6849363,98.0525698 46.3888193,97.8758788 47.2914931,97.8758788 L48.5417861,97.8758788 L48.5417861,97.1671874 C48.5417861,96.7216123 48.4044665,96.3711112 48.1298232,96.1156737 C47.8551799,95.8602363 47.4547444,95.7325194 46.9285048,95.7325194 C46.4483592,95.7325194 46.0508045,95.8554349 45.735829,96.1012694 C45.4208535,96.347104 45.2633681,96.6428693 45.2633681,96.9885741 L44.5719618,96.9828124 C44.5719618,96.4873021 44.8024282,96.0580584 45.2633681,95.6950683 C45.7243079,95.3320782 46.2908712,95.1505858 46.9630751,95.1505858 C47.658326,95.1505858 48.2066441,95.3243959 48.6080459,95.6720214 C49.0094476,96.0196468 49.2159071,96.5045867 49.2274306,97.1268554 L49.2274306,100.076855 C49.2274306,100.679918 49.2908089,101.131248 49.4175673,101.430859 L49.4175673,101.5 L48.6800673,101.5 Z M46.5136611,101.004492 C46.9746009,101.004492 47.3865596,100.8931 47.7495497,100.670312 C48.1125398,100.447525 48.376616,100.149839 48.5417861,99.7772461 L48.5417861,98.405957 L47.3087783,98.405957 C46.6212097,98.4136393 46.0834547,98.5394356 45.695497,98.7833496 C45.3075393,99.0272635 45.1135634,99.3624002 45.1135634,99.7887695 C45.1135634,100.138316 45.2432007,100.428319 45.5024794,100.658789 C45.761758,100.889259 46.0988152,101.004492 46.5136611,101.004492 Z M55.0290127,99.9155273 C55.0290127,99.5736636 54.8916932,99.2990244 54.6170498,99.0916015 C54.3424065,98.8841786 53.9285272,98.7218918 53.3753994,98.6047363 C52.8222717,98.4875807 52.3930279,98.353142 52.0876553,98.201416 C51.7822827,98.0496899 51.5556573,97.8643565 51.4077725,97.6454101 C51.2598876,97.4264637 51.1859463,97.1614273 51.1859463,96.8502929 C51.1859463,96.3586238 51.3914455,95.9524266 51.8024502,95.6316894 C52.2134549,95.3109521 52.7396866,95.1505858 53.3811612,95.1505858 C54.076412,95.1505858 54.6343329,95.3224754 55.0549405,95.6662597 C55.4755481,96.0100439 55.6858487,96.4584932 55.6858487,97.011621 L54.9944424,97.011621 C54.9944424,96.6467103 54.8417584,96.3432628 54.5363858,96.1012694 C54.2310132,95.859276 53.8459421,95.7382812 53.3811612,95.7382812 C52.9279037,95.7382812 52.5639587,95.8391102 52.2893154,96.0407714 C52.0146721,96.2424326 51.8773525,96.5045881 51.8773525,96.827246 C51.8773525,97.1383804 51.9916255,97.3794099 52.2201748,97.5503417 C52.4487241,97.7212736 52.8654843,97.8777987 53.4704678,98.0199218 C54.0754513,98.1620449 54.528702,98.3137687 54.8302334,98.4750976 C55.1317649,98.6364265 55.3555094,98.8304025 55.5014737,99.0570312 C55.647438,99.28366 55.720419,99.5582991 55.720419,99.880957 C55.720419,100.407197 55.5081978,100.827798 55.0837491,101.142773 C54.6593003,101.457749 54.1052206,101.615234 53.4214932,101.615234 C52.695513,101.615234 52.1068633,101.439504 51.6555264,101.088037 C51.2041895,100.73657 50.9785244,100.291962 50.9785244,99.7541992 L51.6699307,99.7541992 C51.6968188,100.157522 51.8667878,100.471532 52.1798428,100.69624 C52.4928977,100.920948 52.9067771,101.033301 53.4214932,101.033301 C53.9016388,101.033301 54.2895907,100.92767 54.5853604,100.716406 C54.8811301,100.505142 55.0290127,100.238185 55.0290127,99.9155273 Z M59.9144816,101.615234 C59.3844008,101.615234 58.9052226,101.484637 58.4769327,101.223437 C58.0486428,100.962238 57.7154267,100.598293 57.4772745,100.131592 C57.2391223,99.6648902 57.1200479,99.1415393 57.1200479,98.5615234 L57.1200479,98.3137695 C57.1200479,97.7145477 57.2362414,97.1748721 57.4686319,96.6947265 C57.7010224,96.2145808 58.0246357,95.837192 58.4394815,95.5625487 C58.8543274,95.2879054 59.303737,95.1505858 59.7877238,95.1505858 C60.5444333,95.1505858 61.1446063,95.4089003 61.5882609,95.925537 C62.0319155,96.4421737 62.2537394,97.1479772 62.2537394,98.0429687 L62.2537394,98.4290039 L57.8056925,98.4290039 L57.8056925,98.5615234 C57.8056925,99.2682978 58.0083109,99.8569475 58.4135538,100.32749 C58.8187967,100.798033 59.3287038,101.033301 59.9432902,101.033301 C60.312042,101.033301 60.6375759,100.966081 60.9199015,100.831641 C61.2022271,100.6972 61.4586211,100.482098 61.689091,100.186328 L62.1212199,100.514746 C61.6141861,101.248409 60.878614,101.615234 59.9144816,101.615234 Z M59.7877238,95.7382812 C59.2691665,95.7382812 58.8322405,95.928416 58.4769327,96.3086913 C58.1216249,96.6889667 57.9055627,97.199834 57.8287394,97.8413085 L61.5680949,97.8413085 L61.5680949,97.7664062 C61.5488891,97.1671844 61.3779598,96.6793638 61.0553019,96.3029296 C60.732644,95.9264954 60.3101222,95.7382812 59.7877238,95.7382812 Z M67.6112004,96.3202148 C67.8378292,95.9476217 68.1278328,95.6595387 68.48122,95.4559569 C68.8346072,95.2523752 69.2206385,95.1505858 69.6393255,95.1505858 C70.3076882,95.1505858 70.8051116,95.3388001 71.1316107,95.7152343 C71.4581097,96.0916685 71.6232773,96.6563113 71.6271185,97.4091796 L71.6271185,101.5 L70.9414739,101.5 L70.9414739,97.4034179 C70.9376328,96.846449 70.8195187,96.4316094 70.5871282,96.1588866 C70.3547377,95.8861639 69.9831106,95.7498046 69.4722356,95.7498046 C69.0458663,95.7498046 68.6684775,95.8832831 68.3400579,96.1502441 C68.0116383,96.417205 67.7686882,96.7773089 67.6112004,97.2305663 L67.6112004,101.5 L66.9255559,101.5 L66.9255559,92.6499999 L67.6112004,92.6499999 L67.6112004,96.3202148 Z M74.4037982,101.5 L73.7123919,101.5 L73.7123919,95.2658202 L74.4037982,95.2658202 L74.4037982,101.5 Z M73.5913958,93.4624022 C73.5913958,93.3318026 73.633648,93.2213708 73.7181537,93.1311034 C73.8026593,93.040836 73.9178925,92.995703 74.0638568,92.995703 C74.2098211,92.995703 74.3260146,93.040836 74.4124408,93.1311034 C74.498867,93.2213708 74.5420795,93.3318026 74.5420795,93.4624022 C74.5420795,93.5930018 74.498867,93.7024734 74.4124408,93.7908202 C74.3260146,93.879167 74.2098211,93.9233397 74.0638568,93.9233397 C73.9178925,93.9233397 73.8026593,93.879167 73.7181537,93.7908202 C73.633648,93.7024734 73.5913958,93.5930018 73.5913958,93.4624022 Z M80.2399506,99.9155273 C80.2399506,99.5736636 80.102631,99.2990244 79.8279877,99.0916015 C79.5533444,98.8841786 79.1394651,98.7218918 78.5863373,98.6047363 C78.0332096,98.4875807 77.6039658,98.353142 77.2985932,98.201416 C76.9932205,98.0496899 76.7665952,97.8643565 76.6187103,97.6454101 C76.4708255,97.4264637 76.3968842,97.1614273 76.3968842,96.8502929 C76.3968842,96.3586238 76.6023834,95.9524266 77.0133881,95.6316894 C77.4243927,95.3109521 77.9506245,95.1505858 78.592099,95.1505858 C79.2873499,95.1505858 79.8452708,95.3224754 80.2658784,95.6662597 C80.6864859,96.0100439 80.8967866,96.4584932 80.8967866,97.011621 L80.2053803,97.011621 C80.2053803,96.6467103 80.0526963,96.3432628 79.7473237,96.1012694 C79.441951,95.859276 79.05688,95.7382812 78.592099,95.7382812 C78.1388416,95.7382812 77.7748966,95.8391102 77.5002533,96.0407714 C77.22561,96.2424326 77.0882904,96.5045881 77.0882904,96.827246 C77.0882904,97.1383804 77.2025634,97.3794099 77.4311127,97.5503417 C77.659662,97.7212736 78.0764222,97.8777987 78.6814057,98.0199218 C79.2863892,98.1620449 79.7396399,98.3137687 80.0411713,98.4750976 C80.3427028,98.6364265 80.5664473,98.8304025 80.7124116,99.0570312 C80.8583759,99.28366 80.9313569,99.5582991 80.9313569,99.880957 C80.9313569,100.407197 80.7191357,100.827798 80.294687,101.142773 C79.8702382,101.457749 79.3161585,101.615234 78.6324311,101.615234 C77.9064509,101.615234 77.3178012,101.439504 76.8664643,101.088037 C76.4151274,100.73657 76.1894623,100.291962 76.1894623,99.7541992 L76.8808686,99.7541992 C76.9077567,100.157522 77.0777257,100.471532 77.3907807,100.69624 C77.7038356,100.920948 78.117715,101.033301 78.6324311,101.033301 C79.1125767,101.033301 79.5005286,100.92767 79.7962983,100.716406 C80.092068,100.505142 80.2399506,100.238185 80.2399506,99.9155273 Z M83.782939,93.6698241 L83.782939,95.2658202 L85.073564,95.2658202 L85.073564,95.8304687 L83.782939,95.8304687 L83.782939,99.9846679 C83.782939,100.330373 83.845357,100.587727 83.9701948,100.756738 C84.0950327,100.92575 84.3034128,101.010254 84.5953413,101.010254 C84.7105763,101.010254 84.89687,100.991048 85.1542281,100.952637 L85.1830366,101.517285 C85.0025019,101.582585 84.756671,101.615234 84.4455366,101.615234 C83.9730733,101.615234 83.6292942,101.477915 83.414189,101.203271 C83.1990837,100.928628 83.0915327,100.524352 83.0915327,99.9904297 L83.0915327,95.8304687 L81.9449507,95.8304687 L81.9449507,95.2658202 L83.0915327,95.2658202 L83.0915327,93.6698241 L83.782939,93.6698241 Z M86.2369624,98.2907226 C86.2369624,97.6915008 86.3531559,97.1518252 86.5855464,96.6716796 C86.8179369,96.191534 87.1463516,95.8179863 87.5708004,95.5510253 C87.9952491,95.2840643 88.4763478,95.1505858 89.0141109,95.1505858 C89.8438026,95.1505858 90.5159964,95.4415497 91.0307125,96.0234862 C91.5454286,96.6054228 91.8027828,97.3765251 91.8027828,98.3368164 L91.8027828,98.4808593 C91.8027828,99.0839222 91.6865893,99.6264787 91.4541989,100.108545 C91.2218084,100.590611 90.894354,100.962238 90.4718258,101.223437 C90.0492976,101.484637 89.5672386,101.615234 89.0256344,101.615234 C88.1997839,101.615234 87.5285503,101.32427 87.0119136,100.742334 C86.4952769,100.160397 86.2369624,99.3892951 86.2369624,98.4290039 L86.2369624,98.2907226 Z M86.9283687,98.4808593 C86.9283687,99.2260454 87.1213844,99.8377417 87.5074214,100.315967 C87.8934585,100.794192 88.3995245,101.033301 89.0256344,101.033301 C89.6479031,101.033301 90.1520485,100.794192 90.5380856,100.315967 C90.9241227,99.8377417 91.1171383,99.2068398 91.1171383,98.4232421 L91.1171383,98.2907226 C91.1171383,97.8144181 91.0287928,97.3784524 90.8520992,96.9828124 C90.6754056,96.5871724 90.4276542,96.2808441 90.1088375,96.0638183 C89.7900208,95.8467924 89.4251156,95.7382812 89.0141109,95.7382812 C88.3995245,95.7382812 87.89826,95.9793107 87.5103023,96.4613769 C87.1223446,96.9434431 86.9283687,97.574345 86.9283687,98.3541015 L86.9283687,98.4808593 Z M96.3367868,95.8535155 C96.1908225,95.8266274 96.0352577,95.8131835 95.8700876,95.8131835 C95.4398771,95.8131835 95.0759322,95.9332181 94.7782419,96.1732909 C94.4805516,96.4133637 94.2683304,96.7619443 94.1415719,97.2190429 L94.1415719,101.5 L93.4559274,101.5 L93.4559274,95.2658202 L94.1300485,95.2658202 L94.1415719,96.2568359 C94.5064826,95.5193322 95.0922515,95.1505858 95.8988962,95.1505858 C96.0909544,95.1505858 96.2426782,95.175553 96.354072,95.2254882 L96.3367868,95.8535155 Z M99.7357322,100.508984 L101.556435,95.2658202 L102.299697,95.2658202 L99.637783,102.560156 L99.4995017,102.882813 C99.157638,103.639522 98.6294857,104.017871 97.915029,104.017871 C97.7498589,104.017871 97.573168,103.990983 97.3849509,103.937207 L97.3791892,103.366797 L97.7364157,103.401367 C98.0744383,103.401367 98.3481172,103.317823 98.5574607,103.150732 C98.7668042,102.983642 98.9444554,102.696519 99.0904197,102.289355 L99.3957908,101.448145 L97.0450095,95.2658202 L97.7997947,95.2658202 L99.7357322,100.508984 Z M108.187236,100.065332 L108.290947,100.601172 L108.429228,100.036523 L109.927275,95.2658202 L110.514971,95.2658202 L111.995732,99.9961914 L112.157061,100.653027 L112.28958,100.048047 L113.568682,95.2658202 L114.283135,95.2658202 L112.468193,101.5 L111.880498,101.5 L110.27874,96.5564452 L110.203838,96.2165038 L110.128935,96.562207 L108.555986,101.5 L107.968291,101.5 L106.159111,95.2658202 L106.867803,95.2658202 L108.187236,100.065332 Z M116.593115,101.5 L115.901709,101.5 L115.901709,95.2658202 L116.593115,95.2658202 L116.593115,101.5 Z M115.780713,93.4624022 C115.780713,93.3318026 115.822965,93.2213708 115.907471,93.1311034 C115.991976,93.040836 116.10721,92.995703 116.253174,92.995703 C116.399138,92.995703 116.515332,93.040836 116.601758,93.1311034 C116.688184,93.2213708 116.731397,93.3318026 116.731397,93.4624022 C116.731397,93.5930018 116.688184,93.7024734 116.601758,93.7908202 C116.515332,93.879167 116.399138,93.9233397 116.253174,93.9233397 C116.10721,93.9233397 115.991976,93.879167 115.907471,93.7908202 C115.822965,93.7024734 115.780713,93.5930018 115.780713,93.4624022 Z M119.767354,93.6698241 L119.767354,95.2658202 L121.057979,95.2658202 L121.057979,95.8304687 L119.767354,95.8304687 L119.767354,99.9846679 C119.767354,100.330373 119.829772,100.587727 119.954609,100.756738 C120.079447,100.92575 120.287827,101.010254 120.579756,101.010254 C120.694991,101.010254 120.881285,100.991048 121.138643,100.952637 L121.167451,101.517285 C120.986917,101.582585 120.741086,101.615234 120.429951,101.615234 C119.957488,101.615234 119.613709,101.477915 119.398604,101.203271 C119.183498,100.928628 119.075947,100.524352 119.075947,99.9904297 L119.075947,95.8304687 L117.929365,95.8304687 L117.929365,95.2658202 L119.075947,95.2658202 L119.075947,93.6698241 L119.767354,93.6698241 Z M123.402529,96.3202148 C123.629158,95.9476217 123.919162,95.6595387 124.272549,95.4559569 C124.625936,95.2523752 125.011967,95.1505858 125.430654,95.1505858 C126.099017,95.1505858 126.596441,95.3388001 126.92294,95.7152343 C127.249439,96.0916685 127.414606,96.6563113 127.418447,97.4091796 L127.418447,101.5 L126.732803,101.5 L126.732803,97.4034179 C126.728962,96.846449 126.610848,96.4316094 126.378457,96.1588866 C126.146067,95.8861639 125.77444,95.7498046 125.263565,95.7498046 C124.837195,95.7498046 124.459806,95.8832831 124.131387,96.1502441 C123.802967,96.417205 123.560017,96.7773089 123.402529,97.2305663 L123.402529,101.5 L122.716885,101.5 L122.716885,92.6499999 L123.402529,92.6499999 L123.402529,96.3202148 Z M132.424444,101.5 L132.424444,93.1109374 L135.005694,93.1109374 C135.743197,93.1109374 136.402908,93.2770653 136.984844,93.609326 C137.566781,93.9415868 138.020992,94.414043 138.347491,95.0267089 C138.67399,95.6393747 138.837237,96.3355754 138.837237,97.115332 L138.837237,97.5013671 C138.837237,98.2811236 138.67687,98.9744435 138.356133,99.5813476 C138.035396,100.188252 137.583105,100.658787 136.999248,100.992969 C136.415391,101.32715 135.756641,101.496159 135.022979,101.5 L132.424444,101.5 Z M134.152959,94.511035 L134.152959,100.111426 L134.988409,100.111426 C135.664454,100.111426 136.181083,99.8905621 136.538311,99.4488281 C136.895539,99.0070941 137.077992,98.3752319 137.085674,97.5532226 L137.085674,97.1095702 C137.085674,96.2568316 136.908983,95.6105653 136.555596,95.1707519 C136.202209,94.7309384 135.68558,94.511035 135.005694,94.511035 L134.152959,94.511035 Z M142.887256,101.615234 C142.357176,101.615234 141.877997,101.484637 141.449707,101.223437 C141.021418,100.962238 140.688201,100.598293 140.450049,100.131592 C140.211897,99.6648902 140.092823,99.1415393 140.092823,98.5615234 L140.092823,98.3137695 C140.092823,97.7145477 140.209016,97.1748721 140.441407,96.6947265 C140.673797,96.2145808 140.99741,95.837192 141.412256,95.5625487 C141.827102,95.2879054 142.276512,95.1505858 142.760498,95.1505858 C143.517208,95.1505858 144.117381,95.4089003 144.561036,95.925537 C145.00469,96.4421737 145.226514,97.1479772 145.226514,98.0429687 L145.226514,98.4290039 L140.778467,98.4290039 L140.778467,98.5615234 C140.778467,99.2682978 140.981086,99.8569475 141.386329,100.32749 C141.791571,100.798033 142.301478,101.033301 142.916065,101.033301 C143.284817,101.033301 143.610351,100.966081 143.892676,100.831641 C144.175002,100.6972 144.431396,100.482098 144.661866,100.186328 L145.093995,100.514746 C144.586961,101.248409 143.851389,101.615234 142.887256,101.615234 Z M142.760498,95.7382812 C142.241941,95.7382812 141.805015,95.928416 141.449707,96.3086913 C141.0944,96.6889667 140.878337,97.199834 140.801514,97.8413085 L144.54087,97.8413085 L144.54087,97.7664062 C144.521664,97.1671844 144.350734,96.6793638 144.028077,96.3029296 C143.705419,95.9264954 143.282897,95.7382812 142.760498,95.7382812 Z M149.213155,101.615234 C148.683074,101.615234 148.203896,101.484637 147.775606,101.223437 C147.347316,100.962238 147.0141,100.598293 146.775948,100.131592 C146.537796,99.6648902 146.418721,99.1415393 146.418721,98.5615234 L146.418721,98.3137695 C146.418721,97.7145477 146.534915,97.1748721 146.767305,96.6947265 C146.999696,96.2145808 147.323309,95.837192 147.738155,95.5625487 C148.153001,95.2879054 148.60241,95.1505858 149.086397,95.1505858 C149.843107,95.1505858 150.44328,95.4089003 150.886934,95.925537 C151.330589,96.4421737 151.552413,97.1479772 151.552413,98.0429687 L151.552413,98.4290039 L147.104366,98.4290039 L147.104366,98.5615234 C147.104366,99.2682978 147.306984,99.8569475 147.712227,100.32749 C148.11747,100.798033 148.627377,101.033301 149.241963,101.033301 C149.610715,101.033301 149.936249,100.966081 150.218575,100.831641 C150.5009,100.6972 150.757294,100.482098 150.987764,100.186328 L151.419893,100.514746 C150.912859,101.248409 150.177287,101.615234 149.213155,101.615234 Z M149.086397,95.7382812 C148.56784,95.7382812 148.130914,95.928416 147.775606,96.3086913 C147.420298,96.6889667 147.204236,97.199834 147.127413,97.8413085 L150.866768,97.8413085 L150.866768,97.7664062 C150.847562,97.1671844 150.676633,96.6793638 150.353975,96.3029296 C150.031317,95.9264954 149.608795,95.7382812 149.086397,95.7382812 Z M158.137589,98.446289 C158.137589,99.4181038 157.922487,100.189206 157.492276,100.759619 C157.062066,101.330032 156.485899,101.615234 155.76376,101.615234 C154.911022,101.615234 154.258033,101.315628 153.804776,100.716406 L153.804776,103.896875 L153.119131,103.896875 L153.119131,95.2658202 L153.758682,95.2658202 L153.793253,96.1473632 C154.242669,95.4828416 154.893737,95.1505858 155.746475,95.1505858 C156.491661,95.1505858 157.07647,95.4329072 157.500919,95.9975585 C157.925367,96.5622098 158.137589,97.3457957 158.137589,98.3483398 L158.137589,98.446289 Z M157.446182,98.3252929 C157.446182,97.5301717 157.282935,96.9021507 156.956436,96.4412109 C156.629937,95.980271 156.174766,95.7498046 155.590909,95.7498046 C155.168381,95.7498046 154.805396,95.8515939 154.501944,96.0551757 C154.198492,96.2587574 153.966105,96.5545227 153.804776,96.9424804 L153.804776,99.9328125 C153.969946,100.290041 154.206174,100.562759 154.513467,100.750977 C154.820761,100.939194 155.183745,101.033301 155.602432,101.033301 C156.182448,101.033301 156.634739,100.801874 156.959317,100.339014 C157.283896,99.8761533 157.446182,99.2049197 157.446182,98.3252929 Z M164.624346,100.111426 L168.294561,100.111426 L168.294561,101.5 L162.895831,101.5 L162.895831,93.1109374 L164.624346,93.1109374 L164.624346,100.111426 Z M174.562843,97.8643554 L171.244093,97.8643554 L171.244093,100.111426 L175.139015,100.111426 L175.139015,101.5 L169.515577,101.5 L169.515577,93.1109374 L175.127491,93.1109374 L175.127491,94.511035 L171.244093,94.511035 L171.244093,96.5103515 L174.562843,96.5103515 L174.562843,97.8643554 Z M180.468136,101.5 C180.398995,101.304101 180.354822,101.014097 180.335616,100.62998 C180.093623,100.944956 179.785374,101.187906 179.41086,101.358838 C179.036347,101.52977 178.639752,101.615234 178.221065,101.615234 C177.621844,101.615234 177.136904,101.448146 176.766231,101.113965 C176.395559,100.779783 176.210226,100.357262 176.210226,99.8463867 C176.210226,99.2394826 176.462778,98.7593442 176.967892,98.405957 C177.473005,98.0525698 178.176888,97.8758788 179.079562,97.8758788 L180.329855,97.8758788 L180.329855,97.1671874 C180.329855,96.7216123 180.192535,96.3711112 179.917892,96.1156737 C179.643248,95.8602363 179.242813,95.7325194 178.716573,95.7325194 C178.236428,95.7325194 177.838873,95.8554349 177.523897,96.1012694 C177.208922,96.347104 177.051437,96.6428693 177.051437,96.9885741 L176.36003,96.9828124 C176.36003,96.4873021 176.590497,96.0580584 177.051437,95.6950683 C177.512376,95.3320782 178.07894,95.1505858 178.751144,95.1505858 C179.446394,95.1505858 179.994713,95.3243959 180.396114,95.6720214 C180.797516,96.0196468 181.003976,96.5045867 181.015499,97.1268554 L181.015499,100.076855 C181.015499,100.679918 181.078877,101.131248 181.205636,101.430859 L181.205636,101.5 L180.468136,101.5 Z M178.301729,101.004492 C178.762669,101.004492 179.174628,100.8931 179.537618,100.670312 C179.900608,100.447525 180.164684,100.149839 180.329855,99.7772461 L180.329855,98.405957 L179.096847,98.405957 C178.409278,98.4136393 177.871523,98.5394356 177.483565,98.7833496 C177.095608,99.0272635 176.901632,99.3624002 176.901632,99.7887695 C176.901632,100.138316 177.031269,100.428319 177.290548,100.658789 C177.549826,100.889259 177.886884,101.004492 178.301729,101.004492 Z M185.964347,95.8535155 C185.818383,95.8266274 185.662818,95.8131835 185.497648,95.8131835 C185.067437,95.8131835 184.703492,95.9332181 184.405802,96.1732909 C184.108112,96.4133637 183.89589,96.7619443 183.769132,97.2190429 L183.769132,101.5 L183.083487,101.5 L183.083487,95.2658202 L183.757608,95.2658202 L183.769132,96.2568359 C184.134043,95.5193322 184.719812,95.1505858 185.526456,95.1505858 C185.718514,95.1505858 185.870238,95.175553 185.981632,95.2254882 L185.964347,95.8535155 Z M187.940148,95.2658202 L187.963194,96.3317382 C188.197506,95.9476217 188.48943,95.6547372 188.838976,95.4530761 C189.188522,95.2514149 189.574553,95.1505858 189.997081,95.1505858 C190.665444,95.1505858 191.162867,95.3388001 191.489366,95.7152343 C191.815865,96.0916685 191.981033,96.6563113 191.984874,97.4091796 L191.984874,101.5 L191.29923,101.5 L191.29923,97.4034179 C191.295389,96.846449 191.177274,96.4316094 190.944884,96.1588866 C190.712494,95.8861639 190.340866,95.7498046 189.829991,95.7498046 C189.403622,95.7498046 189.026233,95.8832831 188.697814,96.1502441 C188.369394,96.417205 188.126444,96.7773089 187.968956,97.2305663 L187.968956,101.5 L187.283312,101.5 L187.283312,95.2658202 L187.940148,95.2658202 Z M194.767316,101.5 L194.075909,101.5 L194.075909,95.2658202 L194.767316,95.2658202 L194.767316,101.5 Z M193.954913,93.4624022 C193.954913,93.3318026 193.997166,93.2213708 194.081671,93.1311034 C194.166177,93.040836 194.28141,92.995703 194.427374,92.995703 C194.573339,92.995703 194.689532,93.040836 194.775958,93.1311034 C194.862384,93.2213708 194.905597,93.3318026 194.905597,93.4624022 C194.905597,93.5930018 194.862384,93.7024734 194.775958,93.7908202 C194.689532,93.879167 194.573339,93.9233397 194.427374,93.9233397 C194.28141,93.9233397 194.166177,93.879167 194.081671,93.7908202 C193.997166,93.7024734 193.954913,93.5930018 193.954913,93.4624022 Z M197.52671,95.2658202 L197.549757,96.3317382 C197.784068,95.9476217 198.075992,95.6547372 198.425538,95.4530761 C198.775084,95.2514149 199.161116,95.1505858 199.583644,95.1505858 C200.252007,95.1505858 200.74943,95.3388001 201.075929,95.7152343 C201.402428,96.0916685 201.567596,96.6563113 201.571437,97.4091796 L201.571437,101.5 L200.885792,101.5 L200.885792,97.4034179 C200.881951,96.846449 200.763837,96.4316094 200.531447,96.1588866 C200.299056,95.8861639 199.927429,95.7498046 199.416554,95.7498046 C198.990185,95.7498046 198.612796,95.8832831 198.284376,96.1502441 C197.955957,96.417205 197.713007,96.7773089 197.555519,97.2305663 L197.555519,101.5 L196.869874,101.5 L196.869874,95.2658202 L197.52671,95.2658202 Z M203.305246,98.3252929 C203.305246,97.349637 203.521308,96.5766141 203.953439,96.0062011 C204.38557,95.4357881 204.972299,95.1505858 205.713644,95.1505858 C206.562541,95.1505858 207.207848,95.4886033 207.649582,96.1646484 L207.684152,95.2658202 L208.329464,95.2658202 L208.329464,101.373242 C208.329464,102.176046 208.10476,102.811749 207.655343,103.280371 C207.205927,103.748993 206.597111,103.983301 205.828878,103.983301 C205.394827,103.983301 204.980947,103.886313 204.587228,103.692334 C204.193509,103.498355 203.883339,103.240041 203.65671,102.917383 L204.042746,102.502539 C204.530573,103.101761 205.110581,103.401367 205.782785,103.401367 C206.358959,103.401367 206.808369,103.231398 207.131027,102.891455 C207.453685,102.551512 207.620773,102.080016 207.632296,101.476953 L207.632296,100.693359 C207.190562,101.307946 206.547177,101.615234 205.702121,101.615234 C204.979982,101.615234 204.399974,101.327151 203.962081,100.750977 C203.524189,100.174802 203.305246,99.3969775 203.305246,98.4174804 L203.305246,98.3252929 Z M204.002413,98.446289 C204.002413,99.2414102 204.161819,99.868471 204.480636,100.32749 C204.799453,100.786509 205.248862,101.016016 205.828878,101.016016 C206.677776,101.016016 207.278909,100.635746 207.632296,99.8751953 L207.632296,96.9770507 C207.470967,96.5775695 207.23858,96.2731618 206.935128,96.0638183 C206.631676,95.8544748 206.266771,95.7498046 205.840402,95.7498046 C205.260386,95.7498046 204.809056,95.9773902 204.486398,96.4325683 C204.16374,96.8877463 204.002413,97.5589799 204.002413,98.446289 Z" id="Race-and-ethnicity-I"></path>
        </g>
    </g>
</svg>